<svg xmlns="http://www.w3.org/2000/svg" xmlns:xlink="http://www.w3.org/1999/xlink" width="378" zoomAndPan="magnify" viewBox="0 0 282.96 283.499996" height="378" preserveAspectRatio="xMidYMid meet" version="1.0"><defs><g/><clipPath id="id1"><path d="M 0.230469 0 L 282.691406 0 L 282.691406 283 L 0.230469 283 Z M 0.230469 0 " clip-rule="nonzero"/></clipPath><clipPath id="id2"><path d="M 0.230469 0 L 282.691406 0 L 282.691406 282.5 L 0.230469 282.5 Z M 0.230469 0 " clip-rule="nonzero"/></clipPath><clipPath id="id3"><path d="M 181 157 L 200 157 L 200 198.542969 L 181 198.542969 Z M 181 157 " clip-rule="nonzero"/></clipPath><clipPath id="id4"><path d="M 108 16.1875 L 174 16.1875 L 174 68 L 108 68 Z M 108 16.1875 " clip-rule="nonzero"/></clipPath><clipPath id="id5"><path d="M 130 149 L 153 149 L 153 198.542969 L 130 198.542969 Z M 130 149 " clip-rule="nonzero"/></clipPath></defs><g clip-path="url(#id1)"><path fill="#ffffff" d="M 0.230469 0 L 282.730469 0 L 282.730469 572.476562 L 0.230469 572.476562 Z M 0.230469 0 " fill-opacity="1" fill-rule="nonzero"/><path fill="#3b271a" d="M 0.230469 0 L 282.730469 0 L 282.730469 282.5 L 0.230469 282.5 Z M 0.230469 0 " fill-opacity="1" fill-rule="nonzero"/></g><g clip-path="url(#id2)"><path fill="#ffffff" d="M 0.230469 0 L 282.730469 0 L 282.730469 282.5 L 0.230469 282.5 Z M 0.230469 0 " fill-opacity="1" fill-rule="nonzero"/><path fill="#3b271a" d="M 0.230469 0 L 282.730469 0 L 282.730469 282.5 L 0.230469 282.5 Z M 0.230469 0 " fill-opacity="1" fill-rule="nonzero"/></g><path fill="#395113" d="M 88.132812 95.226562 C 90.039062 92.367188 94.230469 92.367188 96.132812 95.226562 L 114.683594 123.0625 L 132.246094 149.402344 C 134.378906 152.605469 132.082031 156.894531 128.234375 156.894531 L 56.023438 156.894531 C 52.1875 156.894531 49.898438 152.605469 52.03125 149.402344 L 69.585938 123.0625 L 88.132812 95.226562 " fill-opacity="1" fill-rule="nonzero"/><path fill="#51741e" d="M 88.625 67.042969 C 90.292969 64.539062 93.976562 64.539062 95.640625 67.042969 L 111.929688 91.484375 L 127.351562 114.609375 C 129.21875 117.421875 127.214844 121.191406 123.832031 121.191406 L 60.433594 121.191406 C 57.054688 121.191406 55.046875 117.421875 56.917969 114.609375 L 72.335938 91.484375 L 88.625 67.042969 " fill-opacity="1" fill-rule="nonzero"/><path fill="#6e9d2b" d="M 89.480469 47.363281 C 90.738281 45.464844 93.519531 45.464844 94.785156 47.363281 L 107.082031 65.808594 L 118.71875 83.269531 C 120.132812 85.394531 118.609375 88.234375 116.066406 88.234375 L 68.199219 88.234375 C 65.65625 88.234375 64.136719 85.394531 65.546875 83.269531 L 77.1875 65.808594 L 89.480469 47.363281 " fill-opacity="1" fill-rule="nonzero"/><path fill="#a46638" d="M 101.3125 197.628906 L 83.484375 197.628906 L 83.484375 156.894531 L 101.3125 156.894531 L 101.3125 197.628906 " fill-opacity="1" fill-rule="nonzero"/><path fill="#395113" d="M 186.566406 96.136719 C 188.46875 93.28125 192.660156 93.28125 194.566406 96.136719 L 213.113281 123.976562 L 230.675781 150.316406 C 232.808594 153.519531 230.511719 157.808594 226.667969 157.808594 L 154.457031 157.808594 C 150.617188 157.808594 148.332031 153.519531 150.464844 150.316406 L 168.015625 123.976562 L 186.566406 96.136719 " fill-opacity="1" fill-rule="nonzero"/><path fill="#51741e" d="M 187.058594 67.953125 C 188.726562 65.453125 192.40625 65.453125 194.074219 67.953125 L 210.363281 92.394531 L 225.78125 115.523438 C 227.652344 118.335938 225.644531 122.105469 222.265625 122.105469 L 158.867188 122.105469 C 155.484375 122.105469 153.480469 118.335938 155.347656 115.523438 L 170.769531 92.394531 L 187.058594 67.953125 " fill-opacity="1" fill-rule="nonzero"/><path fill="#6e9d2b" d="M 187.914062 48.277344 C 189.171875 46.378906 191.949219 46.378906 193.21875 48.277344 L 205.511719 66.722656 L 217.152344 84.179688 C 218.5625 86.308594 217.042969 89.148438 214.5 89.148438 L 166.632812 89.148438 C 164.089844 89.148438 162.566406 86.308594 163.980469 84.179688 L 175.617188 66.722656 L 187.914062 48.277344 " fill-opacity="1" fill-rule="nonzero"/><g clip-path="url(#id3)"><path fill="#a46638" d="M 199.742188 198.542969 L 181.917969 198.542969 L 181.917969 157.808594 L 199.742188 157.808594 L 199.742188 198.542969 " fill-opacity="1" fill-rule="nonzero"/></g><path fill="#456319" d="M 136.554688 75.8125 C 138.835938 72.378906 143.863281 72.378906 146.144531 75.8125 L 168.371094 109.160156 L 189.417969 140.742188 C 191.96875 144.574219 189.226562 149.710938 184.625 149.710938 L 98.074219 149.710938 C 93.472656 149.710938 90.722656 144.574219 93.28125 140.742188 L 114.328125 109.160156 L 136.554688 75.8125 " fill-opacity="1" fill-rule="nonzero"/><path fill="#608925" d="M 137.140625 42.023438 C 139.144531 39.023438 143.554688 39.023438 145.558594 42.023438 L 165.082031 71.320312 L 183.558594 99.039062 C 185.800781 102.417969 183.394531 106.925781 179.347656 106.925781 L 103.351562 106.925781 C 99.304688 106.925781 96.898438 102.417969 99.140625 99.039062 L 117.617188 71.320312 L 137.140625 42.023438 " fill-opacity="1" fill-rule="nonzero"/><g clip-path="url(#id4)"><path fill="#6e9d2b" d="M 138.167969 18.429688 C 139.683594 16.167969 143.015625 16.167969 144.53125 18.429688 L 159.269531 40.546875 L 173.210938 61.472656 C 174.90625 64.019531 173.085938 67.425781 170.03125 67.425781 L 112.667969 67.425781 C 109.613281 67.425781 107.792969 64.019531 109.488281 61.472656 L 123.441406 40.546875 L 138.167969 18.429688 " fill-opacity="1" fill-rule="nonzero"/></g><g clip-path="url(#id5)"><path fill="#a46638" d="M 152.351562 198.542969 L 130.988281 198.542969 L 130.988281 149.710938 L 152.351562 149.710938 L 152.351562 198.542969 " fill-opacity="1" fill-rule="nonzero"/></g><g fill="#b9ff8a" fill-opacity="1"><g transform="translate(91.922282, 257.296613)"><g><path d="M 9.738281 -42.386719 L 0 -42.386719 L 0 0 L 1.839844 0 L 1.839844 -20.878906 L 5.667969 -20.878906 L 16.226562 0 L 18.3125 0 L 7.703125 -20.878906 L 9.738281 -20.878906 C 11.191406 -20.878906 12.59375 -21.3125 13.949219 -22.28125 C 15.210938 -23.25 16.179688 -24.511719 16.953125 -26.160156 C 17.679688 -27.804688 18.070312 -29.597656 18.070312 -31.488281 L 18.070312 -31.972656 C 18.070312 -33.8125 17.679688 -35.605469 16.953125 -37.25 C 16.179688 -38.800781 15.210938 -40.011719 13.949219 -40.980469 C 12.59375 -41.902344 11.191406 -42.386719 9.738281 -42.386719 Z M 9.738281 -22.71875 L 1.839844 -22.71875 L 1.839844 -40.546875 L 9.738281 -40.546875 C 10.898438 -40.546875 12.011719 -40.15625 13.03125 -39.382812 C 13.949219 -38.65625 14.726562 -37.640625 15.355469 -36.28125 C 15.9375 -34.925781 16.226562 -33.519531 16.226562 -31.972656 L 16.226562 -31.488281 C 16.226562 -29.886719 15.9375 -28.433594 15.355469 -27.078125 C 14.773438 -25.722656 13.949219 -24.65625 12.980469 -23.882812 C 11.917969 -23.105469 10.851562 -22.71875 9.738281 -22.71875 Z M 9.738281 -22.71875 "/></g></g></g><g fill="#b9ff8a" fill-opacity="1"><g transform="translate(113.866179, 257.296613)"><g/></g></g><g fill="#b9ff8a" fill-opacity="1"><g transform="translate(128.495444, 257.296613)"><g><path d="M 10.609375 -42.386719 L 8.960938 -42.386719 L 0 0 L 1.890625 0 L 4.601562 -12.789062 L 14.96875 -12.789062 L 17.679688 0 L 19.570312 0 Z M 9.785156 -37.398438 L 14.582031 -14.628906 L 4.988281 -14.628906 Z M 9.785156 -37.398438 "/></g></g></g><g fill="#b9ff8a" fill-opacity="1"><g transform="translate(151.698807, 257.296613)"><g/></g></g><g fill="#b9ff8a" fill-opacity="1"><g transform="translate(166.328072, 257.296613)"><g><path d="M 2.082031 -42.386719 L 0 -42.386719 L 0 0 L 1.839844 0 L 1.839844 -38.074219 L 9.929688 -18.261719 L 11.480469 -18.261719 L 19.183594 -37.15625 L 19.183594 0 L 21.023438 0 L 21.023438 -42.386719 L 19.328125 -42.386719 L 10.707031 -21.265625 Z M 2.082031 -42.386719 "/></g></g></g></svg>