<svg xmlns="http://www.w3.org/2000/svg" xmlns:xlink="http://www.w3.org/1999/xlink" width="378" zoomAndPan="magnify" viewBox="0 0 282.96 283.499996" height="378" preserveAspectRatio="xMidYMid meet" version="1.0"><defs><clipPath id="id1"><path d="M 0.230469 0 L 282.691406 0 L 282.691406 283 L 0.230469 283 Z M 0.230469 0 " clip-rule="nonzero"/></clipPath><clipPath id="id2"><path d="M 0.230469 0 L 282.691406 0 L 282.691406 282.5 L 0.230469 282.5 Z M 0.230469 0 " clip-rule="nonzero"/></clipPath><clipPath id="id3"><path d="M 182 185 L 201 185 L 201 226.890625 L 182 226.890625 Z M 182 185 " clip-rule="nonzero"/></clipPath><clipPath id="id4"><path d="M 130 177 L 153 177 L 153 226.890625 L 130 226.890625 Z M 130 177 " clip-rule="nonzero"/></clipPath></defs><g clip-path="url(#id1)"><path fill="#3b271a" d="M 0.230469 0 L 282.730469 0 L 282.730469 282.5 L 0.230469 282.5 Z M 0.230469 0 " fill-opacity="1" fill-rule="nonzero"/></g><g clip-path="url(#id2)"><path fill="#ffffff" d="M 0.230469 0 L 282.730469 0 L 282.730469 282.5 L 0.230469 282.5 Z M 0.230469 0 " fill-opacity="1" fill-rule="nonzero"/><path fill="#3b271a" d="M 0.230469 0 L 282.730469 0 L 282.730469 282.5 L 0.230469 282.5 Z M 0.230469 0 " fill-opacity="1" fill-rule="nonzero"/></g><path fill="#395113" d="M 87.230469 121.882812 C 89.164062 118.976562 93.425781 118.976562 95.363281 121.882812 L 114.210938 150.175781 L 132.0625 176.945312 C 134.230469 180.203125 131.894531 184.5625 127.988281 184.5625 L 54.59375 184.5625 C 50.695312 184.5625 48.371094 180.203125 50.539062 176.945312 L 68.378906 150.175781 L 87.230469 121.882812 " fill-opacity="1" fill-rule="nonzero"/><path fill="#51741e" d="M 87.730469 93.234375 C 89.425781 90.691406 93.167969 90.691406 94.863281 93.234375 L 111.414062 118.078125 L 127.085938 141.585938 C 128.988281 144.441406 126.949219 148.273438 123.511719 148.273438 L 59.078125 148.273438 C 55.640625 148.273438 53.601562 144.441406 55.503906 141.585938 L 71.175781 118.078125 L 87.730469 93.234375 " fill-opacity="1" fill-rule="nonzero"/><path fill="#6e9d2b" d="M 88.597656 73.234375 C 89.878906 71.304688 92.703125 71.304688 93.992188 73.234375 L 106.488281 91.984375 L 118.316406 109.730469 C 119.75 111.890625 118.203125 114.773438 115.621094 114.773438 L 66.96875 114.773438 C 64.386719 114.773438 62.839844 111.890625 64.273438 109.730469 L 76.105469 91.984375 L 88.597656 73.234375 " fill-opacity="1" fill-rule="nonzero"/><path fill="#a46638" d="M 100.625 225.964844 L 82.503906 225.964844 L 82.503906 184.5625 L 100.625 184.5625 L 100.625 225.964844 " fill-opacity="1" fill-rule="nonzero"/><path fill="#395113" d="M 187.269531 122.808594 C 189.207031 119.90625 193.46875 119.90625 195.402344 122.808594 L 214.253906 151.101562 L 232.105469 177.875 C 234.273438 181.128906 231.9375 185.488281 228.027344 185.488281 L 154.636719 185.488281 C 150.738281 185.488281 148.410156 181.128906 150.578125 177.875 L 168.421875 151.101562 L 187.269531 122.808594 " fill-opacity="1" fill-rule="nonzero"/><path fill="#51741e" d="M 187.769531 94.164062 C 189.464844 91.621094 193.207031 91.621094 194.902344 94.164062 L 211.457031 119.003906 L 227.128906 142.511719 C 229.027344 145.371094 226.992188 149.199219 223.554688 149.199219 L 159.121094 149.199219 C 155.683594 149.199219 153.644531 145.371094 155.542969 142.511719 L 171.21875 119.003906 L 187.769531 94.164062 " fill-opacity="1" fill-rule="nonzero"/><path fill="#6e9d2b" d="M 188.640625 74.164062 C 189.917969 72.234375 192.746094 72.234375 194.03125 74.164062 L 206.527344 92.910156 L 218.359375 110.65625 C 219.792969 112.816406 218.246094 115.703125 215.660156 115.703125 L 167.011719 115.703125 C 164.425781 115.703125 162.878906 112.816406 164.316406 110.65625 L 176.144531 92.910156 L 188.640625 74.164062 " fill-opacity="1" fill-rule="nonzero"/><g clip-path="url(#id3)"><path fill="#a46638" d="M 200.664062 226.890625 L 182.546875 226.890625 L 182.546875 185.488281 L 200.664062 185.488281 L 200.664062 226.890625 " fill-opacity="1" fill-rule="nonzero"/></g><path fill="#456319" d="M 136.445312 102.148438 C 138.757812 98.660156 143.871094 98.660156 146.1875 102.148438 L 168.78125 136.046875 L 190.167969 168.144531 C 192.761719 172.039062 189.976562 177.261719 185.296875 177.261719 L 97.335938 177.261719 C 92.65625 177.261719 89.859375 172.039062 92.460938 168.144531 L 113.851562 136.046875 L 136.445312 102.148438 " fill-opacity="1" fill-rule="nonzero"/><path fill="#608925" d="M 137.035156 67.808594 C 139.074219 64.757812 143.558594 64.757812 145.59375 67.808594 L 165.4375 97.585938 L 184.214844 125.757812 C 186.492188 129.191406 184.046875 133.773438 179.933594 133.773438 L 102.699219 133.773438 C 98.585938 133.773438 96.140625 129.191406 98.417969 125.757812 L 117.195312 97.585938 L 137.035156 67.808594 " fill-opacity="1" fill-rule="nonzero"/><path fill="#6e9d2b" d="M 138.082031 43.828125 C 139.621094 41.527344 143.011719 41.527344 144.550781 43.828125 L 159.527344 66.304688 L 173.699219 87.578125 C 175.421875 90.164062 173.570312 93.625 170.46875 93.625 L 112.164062 93.625 C 109.0625 93.625 107.210938 90.164062 108.933594 87.578125 L 123.113281 66.304688 L 138.082031 43.828125 " fill-opacity="1" fill-rule="nonzero"/><g clip-path="url(#id4)"><path fill="#a46638" d="M 152.496094 226.890625 L 130.785156 226.890625 L 130.785156 177.261719 L 152.496094 177.261719 L 152.496094 226.890625 " fill-opacity="1" fill-rule="nonzero"/></g></svg>